<svg width="61" height="61" viewBox="0 0 61 61" fill="none" xmlns="http://www.w3.org/2000/svg">
<g clip-path="url(#clip0_9_44)">
<path d="M60.5603 50.1447H46.3397C46.1008 50.1447 45.9076 50.2921 45.9076 50.5819V54.4325C45.9076 54.6714 46.055 54.8646 46.3448 54.8646H60.5628C60.8068 54.8646 61 54.7527 61 54.4477V50.5971C61 50.3302 60.8551 50.1752 60.5603 50.1752V50.1396V50.1447ZM41.8435 6.26028C41.8841 6.3467 41.9197 6.43058 41.9629 6.56528V54.3232C41.9629 54.4757 41.9121 54.5672 41.8689 54.613C41.8271 54.6628 41.7744 54.7025 41.715 54.7289C41.6555 54.7554 41.5908 54.7679 41.5258 54.7655H0.38888C0.292297 54.7655 0.198255 54.7655 0.142338 54.7146C0.0963831 54.6708 0.0600111 54.6178 0.0355145 54.5592C0.0110178 54.5006 -0.00107258 54.4376 5.17459e-06 54.374V6.51699C5.17459e-06 6.32383 0.101672 6.17641 0.244005 6.13574H41.5258C41.6274 6.13574 41.7698 6.17895 41.818 6.22216V6.26283L41.8435 6.26028ZM4.62075 49.7482C4.62075 49.9312 4.71734 50.0913 4.86476 50.1345H36.999C37.1465 50.0862 37.243 49.9414 37.243 49.7431V11.1886C37.243 11.003 37.1439 10.848 36.994 10.8073H4.8673C4.72496 10.8582 4.6233 10.9929 4.6233 11.1886L4.61567 49.7457L4.62075 49.7482ZM17.7713 28.4617C19.4234 28.4617 20.3486 28.9116 21.3195 30.0376C21.4669 30.2257 21.7084 30.274 21.9041 30.124L24.5322 27.7857C24.7228 27.6738 24.6796 27.3688 24.583 27.2163C22.969 25.2745 20.6333 24.0545 17.6188 24.0545C13.5776 24.0545 10.5276 26.0751 9.34571 29.6614C8.92634 30.9195 8.73571 32.5233 8.73571 34.6939C8.73571 36.8645 8.92634 38.4632 9.38384 39.7264C10.5657 43.3483 13.6157 45.3282 17.657 45.3282C20.707 45.3282 23.0326 44.1082 24.6338 42.2376C24.7482 42.0495 24.7863 41.8182 24.5957 41.6632L21.96 39.3375C21.7745 39.2181 21.5457 39.2181 21.3907 39.4062C20.3994 40.5499 19.37 41.1599 17.6951 41.1599C15.9007 41.1599 14.5307 40.283 13.9588 38.5293C13.6132 37.538 13.5369 36.318 13.5369 34.76C13.5369 33.1969 13.6513 32.0455 13.9944 31.0237C14.6044 29.3462 15.9413 28.4617 17.7713 28.4617Z" fill="black"/>
</g>
<defs>
<clipPath id="clip0_9_44">
<rect width="61" height="61" fill="white"/>
</clipPath>
</defs>
</svg>
