<svg width="67" height="67" viewBox="0 0 67 67" fill="none" xmlns="http://www.w3.org/2000/svg">
<path d="M0 0H67V67H0V0ZM61.5116 51.0205C61.023 47.9636 59.0326 45.3953 53.1282 43C51.0735 42.0369 48.79 41.3669 48.1116 39.8175C47.8575 38.8963 47.8185 38.3938 47.9832 37.8494C48.4019 36.046 50.5375 35.5044 52.2125 36.0069C53.3013 36.3419 54.3063 37.1794 54.9372 38.5194C57.8238 36.6323 57.8238 36.6323 59.8366 35.3788C59.0828 34.2063 58.7088 33.701 58.2007 33.2013C56.4419 31.2332 54.0997 30.2282 50.2891 30.3147L48.321 30.5632C46.4338 31.0238 44.636 32.0288 43.5472 33.3688C40.3647 36.9728 41.2832 43.2541 45.1357 45.8503C48.9463 48.6978 54.5185 49.3232 55.2303 52.006C55.9003 55.2722 52.8016 56.3191 49.7419 55.9422C47.4779 55.4397 46.2244 54.3063 44.8425 52.2125L39.7338 55.1466C40.32 56.4866 40.99 57.07 41.995 58.2425C46.8525 63.1447 58.9963 62.8935 61.1766 55.4397C61.2575 55.1885 61.8466 53.4716 61.3832 50.8335L61.5116 51.0205ZM36.434 30.7949H30.1584C30.1584 36.2051 30.1332 41.5819 30.1332 47.0005C30.1332 50.4398 30.3091 53.5972 29.748 54.5687C28.8268 56.4922 26.4538 56.2465 25.3763 55.9087C24.2708 55.3615 23.7096 54.6078 23.0592 53.5218C22.8833 53.2287 22.7521 52.9747 22.7046 52.9747L17.6098 56.1153C18.4613 57.874 19.7036 59.3871 21.306 60.3503C23.6929 61.774 26.9005 62.2346 30.2589 61.4809C32.4448 60.85 34.3291 59.5518 35.3146 57.5418C36.7383 54.9456 36.4368 51.7631 36.4229 48.2009C36.4564 42.4668 36.4229 36.73 36.4229 30.9512L36.434 30.7949Z" fill="#F7DF1E"/>
</svg>
