<svg width="61" height="61" viewBox="0 0 61 61" fill="none" xmlns="http://www.w3.org/2000/svg">
<path d="M0 0H61V61H0V0ZM56.0031 46.4515C55.5583 43.6684 53.7461 41.33 48.3705 39.1493C46.4998 38.2724 44.4207 37.6624 43.8031 36.2518C43.5718 35.413 43.5362 34.9555 43.6862 34.4599C44.0674 32.818 46.0118 32.3249 47.5368 32.7824C48.528 33.0874 49.443 33.8499 50.0175 35.0699C52.6455 33.3518 52.6455 33.3518 54.4781 32.2105C53.7918 31.143 53.4513 30.683 52.9887 30.228C51.3874 28.4362 49.255 27.5212 45.7856 27.6L43.9937 27.8262C42.2755 28.2455 40.6387 29.1605 39.6475 30.3805C36.75 33.6618 37.5862 39.3806 41.0937 41.7443C44.563 44.3368 49.6362 44.9062 50.2843 47.3487C50.8943 50.3225 48.0731 51.2756 45.2874 50.9325C43.2261 50.475 42.0849 49.443 40.8268 47.5368L36.1755 50.2081C36.7093 51.4281 37.3193 51.9593 38.2343 53.0268C42.6568 57.49 53.713 57.2612 55.6981 50.475C55.7718 50.2462 56.3081 48.6831 55.8862 46.2812L56.0031 46.4515ZM33.1713 28.0371H27.4576C27.4576 32.9629 27.4347 37.8581 27.4347 42.7915C27.4347 45.9228 27.5949 48.7975 27.084 49.682C26.2453 51.4332 24.0848 51.2095 23.1038 50.902C22.0973 50.4038 21.5864 49.7175 20.9942 48.7288C20.834 48.462 20.7146 48.2307 20.6714 48.2307L16.0328 51.09C16.808 52.6913 17.9391 54.0689 19.398 54.9458C21.5711 56.242 24.4915 56.6614 27.5491 55.9751C29.5392 55.4007 31.2549 54.2188 32.1521 52.3888C33.4483 50.0251 33.1738 47.1276 33.1611 43.8844C33.1916 38.6638 33.1611 33.4407 33.1611 28.1795L33.1713 28.0371Z" fill="black"/>
</svg>
