<svg width="136" height="75" viewBox="0 0 136 75" fill="none" xmlns="http://www.w3.org/2000/svg">
<path d="M49.5182 18.3627L49.3094 15.7776C50.448 15.4712 51.5993 15.318 52.7632 15.318C53.9397 15.318 54.7494 15.65 55.1922 16.3138C55.6477 16.9776 55.8754 17.9989 55.8754 19.3776V22.3265C55.8754 22.6202 55.9386 23.1308 56.0651 23.8585L57.3745 23.9542L57.2607 25.0265L56.6344 24.9882C56.0525 24.9627 55.4389 24.9499 54.7937 24.9499L54.528 23.4372C54.275 23.9095 53.8449 24.3117 53.2376 24.6436C52.643 24.9755 51.9788 25.1414 51.245 25.1414C50.5113 25.1414 49.9103 24.918 49.4423 24.4712C48.9868 24.0117 48.7591 23.4244 48.7591 22.7095C48.7591 21.9819 48.9425 21.4329 49.3094 21.0627C49.6763 20.6925 50.1381 20.4372 50.6947 20.2968C51.2514 20.1436 52.4659 19.9202 54.3383 19.6265V18.9946C54.3383 17.2329 53.7436 16.3521 52.5544 16.3521C51.8586 16.3521 51.2704 16.4734 50.7896 16.7159C50.6757 17.2904 50.6188 17.5904 50.6188 17.6159V18.3053L49.5182 18.3627ZM50.429 22.4989C50.429 23.4436 50.9414 23.9159 51.9662 23.9159C52.5102 23.9159 53.0162 23.7117 53.4843 23.3031C53.9524 22.8946 54.237 22.3776 54.3383 21.7521V20.6031C54.275 20.6159 53.9081 20.6797 53.2376 20.7946C52.5797 20.9095 52.0421 21.018 51.6246 21.1202C50.8276 21.3244 50.429 21.784 50.429 22.4989ZM65.4718 22.3265V18.9946C65.4718 17.3734 64.8709 16.5627 63.669 16.5627C63.0365 16.5627 62.4988 16.8882 62.056 17.5393C61.6132 18.1904 61.3918 18.9117 61.3918 19.7031V21.7521C61.3918 22.4287 61.4108 22.901 61.4488 23.1691L61.5247 23.8585L62.9479 23.9734L62.8341 25.0265L62.0181 24.9882C61.3349 24.9627 60.7593 24.9499 60.2912 24.9499C59.8357 24.9499 59.4056 24.9627 59.0008 24.9882L58.5074 25.0265L58.4125 24.0499L59.665 23.8585C59.6776 23.7436 59.7092 23.5265 59.7598 23.2074C59.8231 22.8755 59.8547 22.5819 59.8547 22.3265V18.1138C59.8547 18.0372 59.8231 17.8202 59.7598 17.4627C59.6966 17.1053 59.6396 16.7734 59.589 16.467L58.2227 16.2372L58.3176 15.2606L58.9059 15.318C59.1462 15.3563 59.4625 15.3755 59.8547 15.3755C60.2596 15.3755 60.5062 15.3691 60.5948 15.3563L60.8225 15.318L60.9364 15.4329L61.1831 16.9457C61.8156 15.8606 62.7961 15.318 64.1245 15.318C65.4529 15.318 66.3068 15.9308 66.6863 17.1563C66.9141 16.6712 67.2746 16.2436 67.768 15.8734C68.2614 15.5031 68.894 15.318 69.6657 15.318C70.8296 15.318 71.614 15.6819 72.0188 16.4095C72.4236 17.1244 72.6261 18.2031 72.6261 19.6457V21.7521C72.6261 22.4287 72.645 22.901 72.683 23.1691L72.7589 23.8585L74.2581 23.9734L74.1442 25.0265L73.3092 24.9882C72.6261 24.9627 72.0504 24.9499 71.5823 24.9499C71.1143 24.9499 70.6904 24.9627 70.3109 24.9882L69.8175 25.0265L69.7226 24.0499L70.8992 23.8585C70.9118 23.7436 70.9435 23.5265 70.9941 23.2074C71.0573 22.8755 71.0889 22.5819 71.0889 22.3265V18.9946C71.0889 17.3734 70.488 16.5627 69.2862 16.5627C68.6663 16.5627 68.1349 16.8755 67.6921 17.501C67.262 18.1138 67.0342 18.8095 67.0089 19.5882V21.7521C67.0089 22.4287 67.0279 22.901 67.0659 23.1691L67.1418 23.8585L68.565 23.9734L68.4512 25.0265L67.6542 24.9882C66.971 24.9627 66.4017 24.9499 65.9463 24.9499C65.4908 24.9499 65.0733 24.9627 64.6938 24.9882L64.2004 25.0265L64.1055 24.0499L65.2821 23.8585C65.2947 23.7436 65.3263 23.5265 65.3769 23.2074C65.4402 22.8755 65.4718 22.5819 65.4718 22.3265ZM82.2594 25.0074L80.0202 24.9499H75.4089L75.2761 23.8393L76.0731 22.9393C76.6045 22.3521 76.9397 21.9499 77.0789 21.7329L79.4509 18.2095C79.9569 17.3159 80.2732 16.7414 80.3997 16.4861H78.0846C77.9961 16.4861 77.6608 16.5244 77.0789 16.601C76.7752 17.2138 76.6234 17.6095 76.6234 17.7882L76.5475 18.4585L75.4469 18.3819L75.5607 15.5861L75.7125 15.4329L76.5475 15.4712C76.8385 15.484 77.218 15.4904 77.6861 15.4904H82.2784L82.4113 16.601L82.0697 17.0223C81.4498 17.7882 81.0196 18.3436 80.7793 18.6882L78.4452 22.2308C78.2934 22.4095 77.9771 22.984 77.4964 23.9542H79.8684C80.0075 23.9542 80.3808 23.9159 80.988 23.8393C81.241 23.3159 81.3802 22.984 81.4055 22.8436C81.4561 22.5882 81.4941 22.3393 81.5194 22.0968L82.62 22.2117L82.4492 24.8159L82.2594 25.0074ZM84.8031 18.3627L84.5944 15.7776C85.733 15.4712 86.8842 15.318 88.0481 15.318C89.2247 15.318 90.0344 15.65 90.4772 16.3138C90.9326 16.9776 91.1603 17.9989 91.1603 19.3776V22.3265C91.1603 22.6202 91.2236 23.1308 91.3501 23.8585L92.6595 23.9542L92.5456 25.0265L91.9194 24.9882C91.3374 24.9627 90.7239 24.9499 90.0787 24.9499L89.813 23.4372C89.56 23.9095 89.1298 24.3117 88.5226 24.6436C87.928 24.9755 87.2638 25.1414 86.53 25.1414C85.7962 25.1414 85.1953 24.918 84.7272 24.4712C84.2718 24.0117 84.0441 23.4244 84.0441 22.7095C84.0441 21.9819 84.2275 21.4329 84.5944 21.0627C84.9613 20.6925 85.423 20.4372 85.9797 20.2968C86.5363 20.1436 87.7508 19.9202 89.6232 19.6265V18.9946C89.6232 17.2329 89.0286 16.3521 87.8394 16.3521C87.1436 16.3521 86.5553 16.4734 86.0746 16.7159C85.9607 17.2904 85.9038 17.5904 85.9038 17.6159V18.3053L84.8031 18.3627ZM85.714 22.4989C85.714 23.4436 86.2264 23.9159 87.2511 23.9159C87.7951 23.9159 88.3012 23.7117 88.7693 23.3031C89.2374 22.8946 89.522 22.3776 89.6232 21.7521V20.6031C89.56 20.6159 89.1931 20.6797 88.5226 20.7946C87.8647 20.9095 87.327 21.018 86.9095 21.1202C86.1125 21.3244 85.714 21.784 85.714 22.4989Z" fill="white"/>
<path d="M27.3369 18.9976L30.7907 14.7082L31.5687 13.3295L30.544 13.1763L30.6389 12.1614L31.2082 12.2189C31.6383 12.2444 32.1254 12.2572 32.6694 12.2572C33.2134 12.2572 33.7131 12.2316 34.1685 12.1806L35.0225 12.104L35.1364 13.2338L33.7321 13.3487C33.3272 13.7061 32.6567 14.3572 31.7205 15.3018L29.1966 18.6721C29.3991 18.9018 29.9684 19.5784 30.9045 20.7018C31.8534 21.8253 32.5935 22.687 33.1248 23.287C33.7068 23.8742 34.2255 24.3401 34.6809 24.6848L36.0093 24.7806L35.8954 25.8338L34.8897 25.7955C34.1053 25.7699 33.498 25.7572 33.0679 25.7572C32.6504 25.7572 32.2013 25.7699 31.7205 25.7955L31.1133 25.8338L31.0184 24.838L31.8724 24.7423C31.3157 23.7976 30.8539 23.0891 30.4871 22.6167C30.3226 22.4508 30.0379 22.138 29.6331 21.6784C29.2409 21.2061 28.9499 20.8614 28.7602 20.6444L27.3369 18.9976ZM25.4203 23.1338V14.8806C25.4203 14.6891 25.3886 14.4338 25.3254 14.1146C25.2748 13.7827 25.2431 13.5274 25.2305 13.3487L23.7693 13.1763L23.8642 12.1614L24.4714 12.2189C24.9522 12.2444 25.4709 12.2572 26.0275 12.2572C26.5842 12.2572 27.1218 12.2316 27.6405 12.1806L28.6463 12.104L28.7602 13.2338L27.28 13.3487L27.2041 14.038C27.1661 14.3061 27.1471 14.7784 27.1471 15.455V22.5593C27.1471 23.2359 27.1661 23.7082 27.2041 23.9763L27.28 24.6657L28.7602 24.7806L28.6463 25.8338L27.6405 25.7955C26.8562 25.7699 26.2489 25.7572 25.8188 25.7572C25.4013 25.7572 24.9522 25.7699 24.4714 25.7955L23.8642 25.8338L23.7693 24.838L25.2305 24.6657C25.2431 24.5508 25.2748 24.3338 25.3254 24.0146C25.3886 23.6827 25.4203 23.3891 25.4203 23.1338Z" fill="white"/>
<path d="M49.6447 40.3888L49.4185 37.5883C50.652 37.2564 51.8992 37.0904 53.1601 37.0904C54.4347 37.0904 55.3118 37.45 55.7915 38.1692C56.2849 38.8883 56.5316 39.9947 56.5316 41.4883V44.683C56.5316 45.0011 56.6001 45.5543 56.7372 46.3426L58.1557 46.4463L58.0324 47.608L57.354 47.5665C56.7235 47.5388 56.0588 47.525 55.3598 47.525L55.072 45.8862C54.7979 46.3979 54.3319 46.8335 53.674 47.1931C53.0299 47.5527 52.3103 47.7325 51.5154 47.7325C50.7205 47.7325 50.0695 47.4905 49.5624 47.0064C49.069 46.5085 48.8223 45.8724 48.8223 45.0979C48.8223 44.3096 49.021 43.7149 49.4185 43.3138C49.8159 42.9128 50.3162 42.6362 50.9193 42.4841C51.5222 42.3181 52.838 42.0761 54.8664 41.758V41.0734C54.8664 39.1649 54.2222 38.2106 52.934 38.2106C52.1801 38.2106 51.5428 38.3421 51.022 38.6048C50.8987 39.2271 50.837 39.5521 50.837 39.5798V40.3266L49.6447 40.3888ZM50.6314 44.8697C50.6314 45.8931 51.1865 46.4048 52.2967 46.4048C52.886 46.4048 53.4342 46.1835 53.9413 45.741C54.4484 45.2984 54.7568 44.7383 54.8664 44.0606V42.816C54.7979 42.8298 54.4004 42.8989 53.674 43.0234C52.9613 43.1479 52.3789 43.2654 51.9266 43.3761C51.0632 43.5973 50.6314 44.0952 50.6314 44.8697ZM69.0041 42.2144C69.0041 43.7495 68.5724 45.0564 67.7089 46.1351C66.8456 47.2 65.708 47.7325 64.2963 47.7325C62.8847 47.7325 61.5347 47.4835 60.2463 46.9856L60.3286 46.0106C60.3834 45.5543 60.4108 45.1186 60.4108 44.7037V34.6633C60.4108 34.4559 60.3766 34.1792 60.308 33.8335C60.2532 33.4739 60.219 33.1974 60.2052 33.0037L58.6428 32.7548L58.7456 31.6346C59.8009 31.7729 60.5068 31.842 60.8631 31.842C61.2331 31.842 61.5415 31.8282 61.7882 31.8005L62.0966 31.759L62.2199 31.8835L62.1378 33.2112C62.0966 33.6952 62.076 34.3936 62.076 35.3064V38.6463C62.3227 38.2591 62.6859 37.9064 63.1656 37.5883C63.659 37.2564 64.2004 37.0904 64.7898 37.0904C66.1877 37.0904 67.2362 37.5606 67.9352 38.5011C68.6478 39.4276 69.0041 40.6655 69.0041 42.2144ZM62.076 44.0606L62.1994 46.3218C62.8572 46.4878 63.5083 46.5708 64.1524 46.5708C65.194 46.5708 65.9547 46.1697 66.4343 45.3676C66.914 44.5655 67.1539 43.5282 67.1539 42.2559C67.1539 39.6558 66.3111 38.3559 64.6252 38.3559C63.803 38.3559 63.1725 38.674 62.7339 39.3101C62.309 39.9325 62.0966 40.7069 62.0966 41.6335L62.076 41.3638V44.0606ZM71.5704 33.9372C71.5704 33.5223 71.6732 33.1974 71.8788 32.9622C72.0843 32.7133 72.379 32.5888 72.7628 32.5888C73.1602 32.5888 73.4617 32.7064 73.6673 32.9415C73.8866 33.1766 73.9962 33.5085 73.9962 33.9372C73.9962 34.3521 73.8935 34.6771 73.6879 34.9122C73.4823 35.1474 73.1807 35.2649 72.7833 35.2649C72.3858 35.2649 72.0843 35.1474 71.8788 34.9122C71.6732 34.6771 71.5704 34.3521 71.5704 33.9372ZM70.4808 37.0904C71.4402 37.2149 72.1528 37.2771 72.6188 37.2771C73.0848 37.2771 73.3795 37.2702 73.5029 37.2564L73.8318 37.2149L73.9551 37.3394L73.8729 38.6463C73.8318 39.1304 73.8112 39.8287 73.8112 40.7415V44.0606C73.8112 44.7937 73.8318 45.3053 73.8729 45.5958L73.9551 46.3426L75.5587 46.467L75.4353 47.608L74.4485 47.5665C73.681 47.5388 73.0642 47.525 72.5983 47.525C72.1323 47.525 71.6389 47.5388 71.1181 47.5665L70.4602 47.608L70.3575 46.5915L71.9404 46.3426C71.9541 46.2181 71.9883 45.983 72.0432 45.6372C72.1117 45.2776 72.146 44.9596 72.146 44.683V40.1192C72.146 39.9117 72.1117 39.6351 72.0432 39.2894C71.9883 38.9298 71.9541 38.6532 71.9404 38.4596L70.378 38.2106L70.4808 37.0904ZM86.4304 42.2144C86.4304 43.7495 85.9986 45.0564 85.1352 46.1351C84.2718 47.2 83.1339 47.7325 81.7225 47.7325C80.3112 47.7325 78.9609 47.4835 77.6726 46.9856L77.7548 46.0106C77.8096 45.5543 77.8371 45.1186 77.8371 44.7037V34.6633C77.8371 34.4559 77.8028 34.1792 77.7343 33.8335C77.6795 33.4739 77.6452 33.1974 77.6315 33.0037L76.0691 32.7548L76.1718 31.6346C77.2272 31.7729 77.933 31.842 78.2893 31.842C78.6594 31.842 78.9678 31.8282 79.2145 31.8005L79.5228 31.759L79.6462 31.8835L79.5639 33.2112C79.5228 33.6952 79.5023 34.3936 79.5023 35.3064V38.6463C79.749 38.2591 80.1119 37.9064 80.5919 37.5883C81.0852 37.2564 81.6269 37.0904 82.2159 37.0904C83.6139 37.0904 84.6624 37.5606 85.3613 38.5011C86.0738 39.4276 86.4304 40.6655 86.4304 42.2144ZM79.5023 44.0606L79.6256 46.3218C80.2835 46.4878 80.9342 46.5708 81.5786 46.5708C82.62 46.5708 83.3806 46.1697 83.8606 45.3676C84.3405 44.5655 84.5801 43.5282 84.5801 42.2559C84.5801 39.6558 83.7372 38.3559 82.0515 38.3559C81.2292 38.3559 80.599 38.674 80.1601 39.3101C79.7355 39.9325 79.5228 40.7069 79.5228 41.6335L79.5023 41.3638V44.0606ZM87.7429 37.0904C88.5787 37.2149 89.2231 37.2771 89.6754 37.2771C90.1411 37.2771 90.436 37.2702 90.5594 37.2564L90.8883 37.2149L91.0117 37.3394L90.9294 38.6463C90.8883 39.1304 90.8678 39.8287 90.8678 40.7415V43.7287C90.8678 45.5128 91.5596 46.4048 92.9441 46.4048C93.7253 46.4048 94.3421 46.1006 94.7944 45.492C95.2601 44.8835 95.5068 44.1506 95.5345 43.2931V40.1192C95.5345 39.9117 95.4997 39.6351 95.4317 39.2894C95.3763 38.9298 95.3423 38.6532 95.3289 38.4596L93.5609 38.2106L93.6637 37.1527L94.6505 37.2149C95.0205 37.2564 95.4522 37.2771 95.9456 37.2771C96.4525 37.2771 96.7679 37.2702 96.8913 37.2564L97.2202 37.2149L97.3436 37.3394L97.2613 38.6463C97.2202 39.1304 97.1997 39.8287 97.1997 40.7415V44.683C97.1997 45.0011 97.2677 45.5543 97.4052 46.3426L98.8238 46.4463L98.7004 47.608L98.022 47.5665C97.391 47.5388 96.7268 47.525 96.0278 47.525L95.7606 45.9277C95.0751 47.1309 94.0132 47.7325 92.5741 47.7325C91.1896 47.7325 90.2716 47.2899 89.8193 46.4048C89.4081 45.6165 89.2025 44.4893 89.2025 43.0234V40.1192C89.2025 39.9117 89.1678 39.6351 89.0998 39.2894C89.0444 38.9298 89.0104 38.6532 88.997 38.4596L87.6401 38.2106L87.7429 37.0904ZM99.8896 31.6346C100.959 31.7729 101.671 31.842 102.028 31.842C102.398 31.842 102.706 31.8282 102.953 31.8005L103.282 31.759L103.405 31.8835L103.323 33.1904C103.282 33.6745 103.261 34.3729 103.261 35.2856V44.0606C103.261 44.7937 103.282 45.3053 103.323 45.5958L103.405 46.3426L105.009 46.467L104.885 47.608L103.898 47.5665C103.104 47.5388 102.473 47.525 102.007 47.525C101.541 47.525 101.048 47.5388 100.527 47.5665L99.8691 47.608L99.7663 46.5915L101.349 46.3426C101.363 46.2181 101.397 45.983 101.452 45.6372C101.521 45.2776 101.555 44.9596 101.555 44.683V34.6633C101.555 34.4559 101.521 34.1792 101.452 33.8335C101.397 33.4739 101.363 33.1974 101.349 33.0037L99.7868 32.7548L99.8896 31.6346ZM105.953 31.6346C107.022 31.7729 107.734 31.842 108.091 31.842C108.461 31.842 108.769 31.8282 109.016 31.8005L109.345 31.759L109.468 31.8835L109.386 33.1904C109.345 33.6745 109.324 34.3729 109.324 35.2856V44.0606C109.324 44.7937 109.345 45.3053 109.386 45.5958L109.468 46.3426L111.072 46.467L110.948 47.608L109.962 47.5665C109.167 47.5388 108.536 47.525 108.07 47.525C107.604 47.525 107.111 47.5388 106.59 47.5665L105.932 47.608L105.829 46.5915L107.412 46.3426C107.426 46.2181 107.461 45.983 107.515 45.6372C107.584 45.2776 107.618 44.9596 107.618 44.683V34.6633C107.618 34.4559 107.584 34.1792 107.515 33.8335C107.461 33.4739 107.426 33.1974 107.412 33.0037L105.85 32.7548L105.953 31.6346ZM113.126 40.3888L112.9 37.5883C114.133 37.2564 115.38 37.0904 116.641 37.0904C117.916 37.0904 118.793 37.45 119.273 38.1692C119.766 38.8883 120.013 39.9947 120.013 41.4883V44.683C120.013 45.0011 120.082 45.5543 120.218 46.3426L121.637 46.4463L121.514 47.608L120.835 47.5665C120.205 47.5388 119.54 47.525 118.841 47.525L118.553 45.8862C118.279 46.3979 117.813 46.8335 117.155 47.1931C116.511 47.5527 115.791 47.7325 114.997 47.7325C114.202 47.7325 113.55 47.4905 113.044 47.0064C112.55 46.5085 112.304 45.8724 112.304 45.0979C112.304 44.3096 112.502 43.7149 112.9 43.3138C113.297 42.9128 113.797 42.6362 114.401 42.4841C115.004 42.3181 116.32 42.0761 118.348 41.758V41.0734C118.348 39.1649 117.703 38.2106 116.415 38.2106C115.662 38.2106 115.024 38.3421 114.503 38.6048C114.38 39.2271 114.318 39.5521 114.318 39.5798V40.3266L113.126 40.3888ZM114.113 44.8697C114.113 45.8931 114.668 46.4048 115.778 46.4048C116.367 46.4048 116.916 46.1835 117.423 45.741C117.929 45.2984 118.238 44.7383 118.348 44.0606V42.816C118.279 42.8298 117.882 42.8989 117.155 43.0234C116.443 43.1479 115.86 43.2654 115.408 43.3761C114.544 43.5973 114.113 44.0952 114.113 44.8697ZM122.535 31.6346C123.604 31.7729 124.31 31.842 124.653 31.842C125.009 31.842 125.311 31.8282 125.557 31.8005L125.886 31.759L126.01 31.8835L125.927 33.1904C125.886 33.6745 125.866 34.3729 125.866 35.2856V38.5218C126.578 37.5676 127.585 37.0904 128.888 37.0904C130.203 37.0904 131.094 37.4846 131.56 38.2729C132.04 39.0474 132.28 40.2159 132.28 41.7787V44.0606C132.28 44.7937 132.3 45.3053 132.341 45.5958L132.424 46.3426L134.048 46.467L133.924 47.608L133.02 47.5665C132.28 47.5388 131.65 47.525 131.129 47.525C130.622 47.525 130.149 47.5388 129.71 47.5665L129.155 47.608L129.052 46.55L130.409 46.3426C130.422 46.2181 130.457 45.983 130.512 45.6372C130.581 45.2776 130.615 44.9596 130.615 44.683V41.0734C130.615 40.2713 130.437 39.6351 130.08 39.1649C129.738 38.6808 129.196 38.4388 128.456 38.4388C127.729 38.4388 127.127 38.7155 126.647 39.2686C126.181 39.808 125.92 40.4718 125.866 41.2601V44.0606C125.866 44.7937 125.886 45.3053 125.927 45.5958L126.01 46.3426L127.613 46.467L127.49 47.608L126.503 47.5665C125.735 47.5388 125.112 47.525 124.632 47.525C124.166 47.525 123.714 47.5388 123.275 47.5665L122.741 47.608L122.638 46.55L123.995 46.3426C124.008 46.2181 124.043 45.983 124.098 45.6372C124.166 45.2776 124.2 44.9596 124.2 44.683V34.6633C124.2 34.4559 124.166 34.1792 124.098 33.8335C124.043 33.4739 124.008 33.1974 123.995 33.0037L122.432 32.7548L122.535 31.6346Z" fill="white"/>
<path d="M23.4126 29.5053L38.4991 29.2181V15.8617C38.4991 15.1436 38.3805 14.1862 38.1433 12.9894C37.9535 11.7447 37.8349 10.7872 37.7874 10.117L32.3079 9.54256L32.6637 5.6649L34.9409 5.88032C36.7437 5.97607 38.6888 6.02394 40.7763 6.02394C42.9112 6.02394 44.9512 5.92819 46.8963 5.73671L50.7391 5.44946L51.166 9.68617L45.6153 10.117L45.3307 12.7021C45.1884 13.7074 45.1172 15.4787 45.1172 18.016V44.6569C45.1172 47.1942 45.1884 48.9654 45.3307 49.9707L45.6153 52.5559L51.166 52.9867L50.7391 56.9362L46.8963 56.7926C43.9549 56.6968 41.6777 56.6489 40.0646 56.6489C38.4516 56.6489 36.7437 56.6968 34.9409 56.7926L32.6637 56.9362L32.3079 52.9867L37.7874 52.5559C37.8349 52.125 37.9535 51.3112 38.1433 50.1144C38.3805 48.8697 38.4991 47.7686 38.4991 46.8112V33.0957L14.873 33.3112V44.6569C14.873 47.1942 14.9442 48.9654 15.0865 49.9707L15.3712 52.5559L20.9219 52.9867L20.4949 56.9362L17.0791 56.7926C14.4223 56.6968 12.1926 56.6489 10.3898 56.6489C8.58698 56.6489 6.85535 56.7686 5.19489 57.008L2.63303 57.2952L2.13489 53.2021L7.61442 52.5559C7.66186 52.125 7.78047 51.3112 7.97024 50.1144C8.20745 48.8697 8.32605 47.7686 8.32605 46.8112V15.8617C8.32605 15.1436 8.20745 14.1862 7.97024 12.9894C7.78047 11.7447 7.66186 10.7872 7.61442 10.117L2.13489 9.25532L2.4907 5.6649L4.76791 5.88032C6.5707 5.97607 8.51582 6.02394 10.6033 6.02394C12.7381 6.02394 14.7781 5.92819 16.7233 5.73671L20.4949 5.44946L20.9219 9.68617L15.3712 10.117L15.0865 12.7021C14.9442 13.7074 14.873 15.4787 14.873 18.016V29.2181C16.0591 29.4096 18.9056 29.5053 23.4126 29.5053Z" fill="#0045F8"/>
</svg>
