<svg width="125" height="125" viewBox="0 0 125 125" fill="none" xmlns="http://www.w3.org/2000/svg">
<path d="M39.1823 40.5261C38.2083 40.5261 37.1927 40.5834 36.151 40.7084L36.7552 42.573C37.6667 42.4792 38.5833 42.448 39.5 42.448H39.8125L39.1875 40.5261H39.1823ZM51.2396 42.3907L51.1146 44.474C52.1563 44.823 53.1667 45.1928 54.1771 45.6042L54.3125 43.5001C54.026 43.3438 53.2292 42.9584 51.2396 42.3907ZM25.2604 43.5886C24.4267 44.0168 23.6052 44.4684 22.7969 44.9428L24.2552 47.1615C25.0729 46.6563 25.8594 46.172 26.6823 45.7657L25.2604 43.5938V43.5886ZM40.3125 43.7032C39.1753 43.6836 38.038 43.7306 36.9062 43.8438C34.599 44.0522 32.1719 44.724 29.7188 45.797C22.3333 49.0157 14.7292 55.7865 9.75521 64.0782C4.78125 72.3647 3.03125 79.7032 2.46354 82.8438C2.27083 83.8959 2.20312 84.474 2.20312 84.474H27.151C27.151 84.474 26.8542 83.1199 26.651 80.9428C26.5368 79.6752 26.4795 78.403 26.4792 77.1303C26.4792 74.2657 26.7656 70.8647 27.75 67.4532C27.9948 66.6042 28.2865 65.7449 28.625 64.9011C28.9635 64.0574 29.3542 63.2292 29.7969 62.4063C30.6823 60.7709 31.7813 59.1876 33.1615 57.7501C34.5417 56.3126 36.2031 55.0157 38.1771 53.9167C39.4688 53.2917 41.8125 52.0157 45.1875 51.3699C46.3125 51.1563 47.5469 51.0053 48.901 50.974C50.2552 50.948 51.724 51.0365 53.3021 51.2865C56.4583 51.7917 60.0625 52.9532 64.1094 55.1407C66.1302 56.2397 68.2656 57.5886 70.5052 59.2449C71.0781 58.7761 71.6042 58.4011 71.6042 58.4011C71.6042 58.4011 70.5833 57.3751 68.7552 55.8699C66.9323 54.3595 64.3125 52.3699 61.1146 50.4376C59.5208 49.4688 57.7708 48.5105 55.9167 47.6355C54.0112 46.7382 52.0466 45.9725 50.0365 45.3438C47.9512 44.697 45.8152 44.2266 43.651 43.9376C42.5449 43.8005 41.4322 43.7223 40.3177 43.7032H40.3125ZM51.1771 52.297L51.0573 54.2917C52.099 54.323 53.1406 54.448 54.1823 54.6667L54.3125 52.7136C53.2784 52.5014 52.2307 52.3621 51.1771 52.297ZM43.7917 53.0574C42.7188 53.3751 41.8073 53.7188 41.0156 54.0678L41.7396 56.2449C42.651 55.8022 43.5677 55.4272 44.4844 55.1459L43.7917 53.0626V53.0574ZM12.5 53.1824C11.6823 53.9688 10.8854 54.7605 10.1615 55.5522L12.5938 57.6355C13.2552 56.7865 13.9844 55.9324 14.7396 55.1459L12.5 53.1824ZM35.1042 57.8595C34.375 58.5261 33.7188 59.2501 33.151 59.9792L34.6667 62.2449C35.2031 61.4584 35.8333 60.7345 36.5312 60.0053L35.1042 57.8595ZM40.2552 61.9584V84.474H46.3177V79.0417L51.5625 84.474H60.526L53.4896 77.3699C53.4896 77.3699 59.0104 76.9011 59.0104 69.7657C59.0104 62.6303 52.3177 61.9584 52.3177 61.9584H40.2552ZM67.8177 62.1251C63.4323 62.1251 61.9531 66.099 61.9531 67.9949V84.474H68.1042V80.5261H73.8854V84.474H79.8542V67.9949C79.8542 63.1928 75.4896 62.1251 73.974 62.1251H67.8177ZM82.6615 62.1251V84.4688H89.0677V62.1251H82.6615ZM91.6875 62.1251V84.474H106.688V78.6928H98.0625V62.1251H91.6875ZM114.391 62.1251C111.865 62.1251 108.49 64.2032 108.49 68.0834V70.0782C108.49 73.9636 111.833 75.948 114.391 75.948C121.495 75.9792 112.688 75.948 119.25 75.948V78.724L108.807 78.7553V84.474H119.13C121.245 84.474 124.875 82.9272 125 78.6042V76.3959C125 72.698 121.974 70.5157 119.13 70.5157H113.984V67.8699H124.177V62.1251H114.385H114.391ZM29.5208 66.6667C29.1357 67.803 28.8191 68.9613 28.5729 70.1355L31.125 72.1563C31.2552 70.9272 31.4844 69.698 31.8021 68.4636L29.5208 66.6667ZM69.9948 67.448H72.1146C73.8177 67.448 73.8542 68.6772 73.8542 68.6772V74.1459H68.0729V68.6772C68.0729 68.6772 68.0729 67.448 70 67.448H69.9948ZM46.3177 67.6095H51.1771C51.1771 67.6095 52.5417 68.1147 52.5417 70.1615C52.5417 72.2188 51.1458 72.7605 51.1458 72.7605H46.3177V67.6095ZM1.57813 67.9272C0.979167 69.2813 0.317708 70.8595 0 71.7136L3.63021 73.0417C4.04688 71.9688 4.70312 70.4167 5.20833 69.2501L1.57813 67.9272ZM28.099 78.1511C28.1615 79.823 28.3229 81.1928 28.4844 82.1355L32.2656 83.4897C31.9474 82.1367 31.6971 80.7687 31.5156 79.3907L28.099 78.1511Z" fill="#FF001F"/>
</svg>
