<svg width="61" height="61" viewBox="0 0 61 61" fill="none" xmlns="http://www.w3.org/2000/svg">
<path d="M51.2298 0.210964C58.9387 1.54534 61.1245 6.81421 60.9619 12.3347L61 12.2559L57.5306 57.7213L12.4288 60.8119H12.4694C8.72554 60.6543 0.38125 60.3112 0 48.645L4.18104 41.02L11.346 57.7594L12.6245 60.7382L19.7538 37.4972L19.6776 37.515L19.7183 37.4388L43.2414 44.9519L39.6932 31.1481L37.177 21.2356L59.5945 19.7894L58.0313 18.4932L41.9375 5.37309L51.2375 0.185547L51.2298 0.210964ZM0 48.5179V48.584V48.5103V48.5179ZM13.0388 12.8939C22.0896 3.91417 33.7711 -1.39283 38.2572 3.13388C42.7356 7.65042 37.9903 18.6508 28.9216 27.6254C19.8657 36.6026 8.3265 42.1993 3.85063 37.6828C-0.637958 33.1662 3.965 21.8812 13.0311 12.9015L13.0388 12.8939Z" fill="black"/>
</svg>
