<svg width="61" height="61" viewBox="0 0 61 61" fill="none" xmlns="http://www.w3.org/2000/svg">
<path d="M30.4466 0C14.4316 0 1.29878 12.3525 0.0559082 28.0524L16.4039 34.8081C17.7891 33.8652 19.4615 33.3085 21.2636 33.3085C21.4237 33.3085 21.5813 33.3187 21.7414 33.3238L29.0131 22.7962V22.6462C29.0131 16.3048 34.1676 11.1478 40.5116 11.1478C46.8505 11.1478 52.0101 16.3099 52.0101 22.6539C52.0101 28.9979 46.8505 34.1549 40.5116 34.1549H40.2447L29.8849 41.5537C29.8849 41.6859 29.8951 41.8206 29.8951 41.9578C29.8951 46.7235 26.0444 50.5893 21.2788 50.5893C17.1232 50.5893 13.6132 47.608 12.8125 43.6582L1.10816 38.8113C4.73257 51.6136 16.4852 61 30.4466 61C47.2902 61 60.9441 47.3436 60.9441 30.5C60.9441 13.6564 47.2877 0 30.4466 0ZM19.1642 46.2837L15.4203 44.7333C16.0862 46.1135 17.235 47.2725 18.76 47.9104C22.0566 49.2804 25.8589 47.7173 27.2289 44.4156C27.8973 42.8144 27.8999 41.0632 27.2416 39.4619C26.5833 37.8607 25.3353 36.6127 23.7417 35.9468C22.1557 35.286 20.4629 35.3139 18.9684 35.8705L22.8394 37.4718C25.2692 38.4885 26.4206 41.2843 25.4039 43.7116C24.3949 46.144 21.5991 47.2953 19.1667 46.2837H19.1642ZM48.1773 22.6386C48.1773 18.4144 44.7384 14.9755 40.5142 14.9755C36.2823 14.9755 32.851 18.4144 32.851 22.6386C32.851 26.8705 36.2823 30.3018 40.5142 30.3018C44.7409 30.3018 48.1773 26.8705 48.1773 22.6386ZM34.7751 22.6259C34.7751 19.4438 37.3498 16.8665 40.5319 16.8665C43.7065 16.8665 46.2914 19.4438 46.2914 22.6259C46.2914 25.8055 43.7065 28.3828 40.5319 28.3828C37.3472 28.3828 34.7751 25.8055 34.7751 22.6259Z" fill="black"/>
</svg>
